<svg width="40" height="40" viewBox="0 0 40 40" fill="none" xmlns="http://www.w3.org/2000/svg">
<path fill-rule="evenodd" clip-rule="evenodd" d="M21.3816 19.0404L29.8112 27.5168C30.5084 28.2179 30.624 29.2825 30.1578 30.104C24.2092 35.0282 15.57 35.0171 9.6097 30.0773C9.14121 29.2556 9.25632 28.1898 9.95419 27.4881L18.3552 19.0404C19.1909 18.2001 20.5459 18.2001 21.3816 19.0404ZM9.26683 6.63032L17.6679 15.078C18.5036 15.9183 18.5036 17.2808 17.6679 18.1211L9.23825 26.5975C8.541 27.2986 7.4823 27.4148 6.66529 26.946C1.76832 20.9645 1.77933 12.2773 6.69185 6.28393C7.50902 5.81284 8.56896 5.92859 9.26683 6.63032Z" fill="#5C6A86"/>
<path d="M33.0358 6.28178C37.9327 12.2633 37.9217 20.9505 33.0092 26.9439C32.192 27.415 31.1321 27.2992 30.4342 26.5975L29.082 25.238C31.3561 23.071 32.7739 20.0085 32.7739 16.6139C32.7739 13.2265 31.3621 10.1698 29.0966 8.0036L30.4628 6.63026C31.1601 5.92914 32.2188 5.81298 33.0358 6.28178Z" fill="#5C6A86"/>
<path d="M24.4293 12.6973C25.4971 13.6617 26.1685 15.0591 26.1685 16.6138C26.1685 18.1758 25.4908 19.5791 24.4143 20.5439L22.033 18.1498C21.1973 17.3094 21.1973 15.9469 22.033 15.1066L24.4293 12.6973Z" fill="#5C6A86"/>
<path d="M31.0151 16.6137C31.0151 19.521 29.7943 22.1423 27.8389 23.99L25.5547 21.6931C26.9241 20.4336 27.7826 18.6242 27.7826 16.6137C27.7826 14.6106 26.9304 12.8071 25.5697 11.5482L27.8534 9.25122C29.8003 11.0982 31.0151 13.7137 31.0151 16.6137Z" fill="#5C6A86"/>
</svg>
